<svg xmlns="http://www.w3.org/2000/svg" aria-hidden="true" style="position:absolute;width:0;height:0;overflow:hidden"><defs><symbol id="dragon" viewBox="0 0 28 32"><path fill="#0b6dc3" d="M15.445 15.908c-.462.282-.536.294-.945.362-.151.025-.347.057-.625.114-1.033.209-12.574 2.856-12.574 2.856s-.859.083-1.215-.28c-.356-.364.646-2.157.646-2.157s3.099-5.59 3.964-6.433c.115-.112.485-.382 1.034-.783 1.207-.881 3.277-2.392 5.387-4.231.998-.87 2.759-2.503 3.806-3.81.145-.182.266-.374.381-.559.3-.479.562-.899 1.125-.899 1.055 0 .918 1.227.845 1.886l-.014.131c-.062.611-1.243 3.468-1.243 3.468s-.164.623-.173.938c6.69.512 11.955 5.984 11.955 12.658 0 7.013-5.812 12.697-12.982 12.697-5.862 0-10.816-3.8-12.429-9.018a5.433 5.433 0 0 1-.094-.496c-.166-1.22-.166-2.066.248-1.915.119.043.301.475.544 1.054.224.534.502 1.194.832 1.791.556 1.005 1.374 1.803 1.467 1.754.069-.036-.121-.33-.371-.717-.161-.249-.347-.536-.505-.819-.338-.603-.568-1.231-.264-1.31.253-.066.703.494 1.243 1.166.247.307.513.638.787.943.711.79 1.554 1.359 1.675 1.298.1-.051-.1-.349-.348-.72a12.479 12.479 0 0 1-.372-.578l-.02-.034c-.274-.464-.497-.844-.267-.983.291-.177.909.412 1.425.904.379.361.704.671.804.586.096-.081.034-.277-.032-.487-.098-.31-.205-.65.165-.702.127-.017.329.094.638.265.199.11.442.245.738.384a5.427 5.427 0 0 0 3.242 1.065c2.967 0 5.372-2.353 5.372-5.254 0-2.184-1.363-4.057-3.302-4.85-.147.306-.33.581-.545.712zm-8.16-3.402c-.62.589-1.647 1.994-1.647 1.994s1.909.118 2.961-.882c1.052-1 .811-2.703.811-2.703s-1.505 1.002-2.125 1.591z" style="fill:var(--color1, #0b6dc3)"/></symbol><symbol id="electric" viewBox="0 0 20 32"><path fill="#f4d23c" d="M3.502.178a.027.027 0 0 1 .026-.036H14.69c.012 0 .023.008.026.019l5.127 16.564a.027.027 0 0 1-.026.035h-7.431c-.009 0-.016.009-.013.017l4.262 15.002c.008.029-.03.048-.048.024L.025 9.778a.027.027 0 0 1 .022-.044h6.744a.014.014 0 0 0 .013-.018L3.503.177z" style="fill:var(--color2, #f4d23c)"/></symbol><symbol id="fairy" viewBox="0 0 32 32"><path fill="#ec8fe6" d="M6.377 25.288c-.011.003-.022-.008-.019-.019l1.478-4.996-7.828-4.281c-.01-.006-.01-.021 0-.026L7.9 11.649 6.357 6.435a.016.016 0 0 1 .019-.019l5.217 1.513L15.876.098c.006-.01.021-.01.026 0l4.283 7.831 5.217-1.513a.016.016 0 0 1 .019.019l-1.543 5.214 7.892 4.317c.01.006.01.021 0 .026l-7.828 4.281 1.478 4.996c.004.011-.007.022-.019.019l-5.097-1.478-4.403 8.05c-.006.01-.021.01-.026 0l-4.403-8.05-5.097 1.478zm3.955-9.255 3.611 1.975 1.975 3.611c.006.01.021.01.026 0l1.975-3.611 3.611-1.975c.01-.006.01-.021 0-.026l-3.611-1.975-1.975-3.611c-.006-.011-.021-.011-.026 0l-1.975 3.611-3.611 1.975c-.01.006-.01.021 0 .026z" style="fill:var(--color3, #ec8fe6)"/></symbol><symbol id="ghost" viewBox="0 0 32 32"><path fill="#5269ad" d="M22.901 31.757c3.441-.176 6.751-1.245 7.362-2.08.554-.758-.399-1.29-1.338-1.813-.957-.533-1.9-1.059-1.213-1.807 2.529-2.757 4.068-6.403 4.068-10.402C31.78 7.058 24.666.088 15.89.088S0 7.058 0 15.655c0 8.597 6.937 14.958 15.637 16.102 1.115.147 4.397.147 7.264 0zm-9.246-18.048c0 1.343-1.112 2.432-2.483 2.432s-2.483-1.089-2.483-2.432c0-.901.5-1.687 1.243-2.108a2.19 2.19 0 0 0 2.188 2.108h1.535zm7.695-2.108a2.423 2.423 0 0 1 1.243 2.108c0 1.343-1.112 2.432-2.483 2.432s-2.483-1.089-2.483-2.432h1.535a2.19 2.19 0 0 0 2.188-2.108z" style="fill:var(--color4, #5269ad)"/></symbol><symbol id="fire" viewBox="0 0 24 32"><path fill="#ff9d55" d="M17.902 24.63c.393-1.436-.369-4.387-.369-4.387s-.553 2.404-1.417 3.293c-.737.758-1.64 1.284-2.934 1.422a3.145 3.145 0 0 0 1.787-2.826c0-1.739-1.435-3.15-3.204-3.15s-3.204 1.41-3.204 3.15c0 .475.107.926.299 1.33-1.107-.882-1.281-2.295-1.281-2.295s-1.236 5.131 2.17 7.545c3.405 2.414 10.077.339 10.077.339s-9.547 6.717-16.621-.594c-6.094-6.298-1.591-14.589-1.591-14.589s-.195.769-.195 1.662c0 .893.484 1.572.484 1.572s1.444-3.044 2.568-4.282c1.064-1.171 2.397-2.122 3.549-2.942.886-.632 1.665-1.187 2.13-1.707 2.562-2.865.991-8.083.991-8.083s2.888 2.546 3.694 5.834c.307 1.253.11 2.68-.067 3.955-.287 2.07-.519 3.743 1.554 3.635 3.351-.175.439-5.341.439-5.341s7.601 3.995 7.033 10.981c-.568 6.986-8.308 8.575-8.308 8.575s2.024-1.662 2.417-3.098z" style="fill:var(--color5, #ff9d55)"/></symbol><symbol id="grass" viewBox="0 0 30 32"><path fill="#63bc5a" d="M4.937 27.866a17.285 17.285 0 0 1-.338-.327c-5.872-5.872-5.872-15.392 0-21.263S29.18.012 29.18.012s2.554 21.656-3.318 27.528c-5.215 5.215-13.307 5.798-19.166 1.75l4.721-5.793 7.546-1.629-6.16-.616 3.915-3.986 4.456-.976-3.524-1.044 3.524-6.357-5.012 5.622-1.936-2.731.681 4.51-3.491 3.936-1.618-4.979v6.622l-4.862 6z" style="fill:var(--color6, #63bc5a)"/></symbol><symbol id="bug" viewBox="0 0 27 32"><path fill="#91c12f" d="m19.027.12-3.814 5.448a12.575 12.575 0 0 0-1.641-.113c-.384 0-.764.024-1.138.066L8.072.323a.073.073 0 0 0-.103-.009l-2.11 1.771a.073.073 0 0 0-.009.103l3.445 4.105c-1.611.595-2.697 1.288-2.697 1.288s3.064 4.076 7.377 4.076 6.855-4.374 6.855-4.374-1.04-.526-2.567-1.014l3.141-4.485a.074.074 0 0 0-.018-.102L19.13.102a.074.074 0 0 0-.102.018zm.853 11.743c-1.151.822-3.592 1.663-3.592 1.663s-2.236 5.223-1.334 9.927c.902 4.704 4.576 8.414 4.576 8.414s7.69-4.498 7.69-11.972c0-7.474-4.448-10.999-4.448-10.999s-1.741 2.145-2.892 2.967zm-12.394 0c1.151.822 3.592 1.663 3.592 1.663s2.236 5.223 1.334 9.927c-.902 4.704-4.576 8.414-4.576 8.414S.146 27.369.146 19.895c0-7.474 4.448-10.999 4.448-10.999s1.741 2.145 2.892 2.967z" style="fill:var(--color7, #91c12f)"/></symbol><symbol id="fighting" viewBox="0 0 30 32"><path fill="#ce416b" d="M4.598 2.73a3.507 3.507 0 0 1 6.334-1.053h1.025a3.505 3.505 0 0 1 5.731 1.06h.858a3.505 3.505 0 0 1 5.074 1.589h2.333c.02 0 .039.005.055.015a3.505 3.505 0 0 1 3.829 3.49v10.701a4.1 4.1 0 0 1-.005.192c-.211 7.292-6.767 13.144-14.825 13.144-8.191 0-14.83-6.047-14.83-13.506 0-3.601 1.547-6.872 4.069-9.293-.006 3.51.053 7.139.326 7.077.732-.167.16-11.039.026-13.415z" style="fill:var(--color8, #ce416b)"/></symbol><symbol id="normal" viewBox="0 0 32 32"><path fill="#919aa2" d="M32.071 15.975C32.071 7.169 24.932.03 16.126.03S.181 7.169.181 15.975c0 8.806 7.139 15.945 15.945 15.945s15.945-7.139 15.945-15.945zm-6.834 0c0 5.032-4.079 9.111-9.111 9.111s-9.111-4.079-9.111-9.111c0-5.032 4.079-9.111 9.111-9.111s9.111 4.079 9.111 9.111z" style="fill:var(--color9, #919aa2)"/></symbol><symbol id="dark" viewBox="0 0 32 32"><path fill="#5a5465" d="M14.259 28.196c3.615-2.446 6.045-7.002 6.045-12.218 0-4.962-2.199-9.326-5.524-11.845.437-.048.881-.072 1.331-.072 6.704 0 12.138 5.434 12.138 12.138s-5.434 12.138-12.138 12.138c-.63 0-1.248-.048-1.852-.14zm1.631 3.672c8.776 0 15.89-7.114 15.89-15.89S24.666.088 15.89.088 0 7.202 0 15.978s7.114 15.89 15.89 15.89z" style="fill:var(--color10, #5a5465)"/></symbol><symbol id="steel" viewBox="0 0 37 32"><path fill="#5a8ea2" d="m.004 15.997 9.27 15.82a.028.028 0 0 0 .023.013H27.67a.028.028 0 0 0 .023-.013l9.168-15.82a.026.026 0 0 0 0-.027L27.693.132a.028.028 0 0 0-.023-.013H9.297a.026.026 0 0 0-.023.013L.004 15.97a.026.026 0 0 0 0 .027zm26.968-.023c0 4.715-3.822 8.538-8.538 8.538s-8.538-3.822-8.538-8.538c0-4.715 3.822-8.538 8.538-8.538s8.538 3.822 8.538 8.538z" style="fill:var(--color11, #5a8ea2)"/></symbol><symbol id="rock" viewBox="0 0 41 32"><path fill="#c5b78c" d="m31.239 15.127 4.878 6.644c.005.006.014.008.02.003l4.246-3.315a.014.014 0 0 0 .005-.016L34.629.208a.014.014 0 0 0-.013-.01h-.809a.014.014 0 0 0-.014.012l-2.556 14.906a.011.011 0 0 0 .003.011zM.237 25.008v-8.937c0-.003.001-.007.003-.009L13.327.275a.016.016 0 0 1 .011-.005h17.331c.009 0 .015.008.014.016l-2.098 14.078a.02.02 0 0 1-.006.01L9.013 27.882c-.004.003-.008.003-.013.002L.247 25.022a.014.014 0 0 1-.01-.014zm12.411 3.605 16.677-11.411a.014.014 0 0 1 .02.004l4.268 6.351a.015.015 0 0 1-.004.02l-11.385 8.167c-.004.003-.008.003-.013.002l-9.563-3.132z" style="fill:var(--color12, #c5b78c)"/></symbol><symbol id="psyhic" viewBox="0 0 30 32"><path fill="#fa7179" d="M27.213 26.481s-4.007 3.214-11.981 1.884c-6.05-1.009-9.277-7.678-9.277-11.263 0-8.499 6.29-10.433 10.543-10.433s7.027 4.146 7.027 7.356-2.27 6.018-5.804 6.018c-3.533 0-4.58-2.481-4.58-4.761s1.845-3.084 3.528-3.084 2.259 1.437 2.259 2.671c0 1.235-.958 1.677-1.757 1.677s-.878-.403-1.184-.827c-.306-.424.39-2.027-.756-2.027s-1.359 1.844-1.359 1.844.418 3.559 3.849 3.497 5.059-2.714 4.586-5.341c-.473-2.627-3.022-5.417-7.496-4.853s-6.3 5.084-5.495 9.915c.805 4.831 6.592 7.629 11.142 6.622s9.082-4.301 9.082-12.652C29.54 4.372 22.307-.648 13.682.18S-.297 8.548.046 17.608c.343 9.06 8.939 13.994 16.209 14.249s11.726-3.954 11.726-3.954 1.002-.894.609-1.592c-.393-.698-1.378.171-1.378.171z" style="fill:var(--color13, #fa7179)"/></symbol><symbol id="ground" viewBox="0 0 44 32"><path fill="#d97845" d="M9.666 31.754h34.203c.012 0 .02-.012.016-.023L32.847.072a.017.017 0 0 0-.016-.012H20.87a.018.018 0 0 0-.016.011L9.65 31.73a.017.017 0 0 0 .016.023zm-9.649.124h7.525a.018.018 0 0 0 .016-.011l8.068-22.275a.017.017 0 0 0-.016-.023H8.361c-.007 0-.014.004-.016.011L.002 31.855a.017.017 0 0 0 .016.023z" style="fill:var(--color14, #d97845)"/></symbol><symbol id="poison" viewBox="0 0 32 32"><path fill="#b567ce" d="M26.554 24.509c3.209-2.566 5.225-6.273 5.225-10.396 0-7.746-7.114-14.024-15.89-14.024S-.001 6.368-.001 14.113c0 3.974 1.873 7.562 4.882 10.114a7.328 7.328 0 0 0-.282 2.031c0 3.098 1.872 5.61 4.182 5.61 1.501 0 2.817-1.06 3.554-2.653.738 1.593 2.054 2.653 3.554 2.653 1.368 0 2.582-.881 3.345-2.243.763 1.362 1.977 2.243 3.345 2.243 2.309 0 4.181-2.512 4.181-5.61 0-.611-.073-1.198-.207-1.749zm-1.465-10.118c0 3.932-4.212 7.12-9.408 7.12s-9.408-3.188-9.408-7.12 4.212-7.12 9.408-7.12 9.408 3.188 9.408 7.12z" style="fill:var(--color15, #b567ce)"/></symbol><symbol id="flying" viewBox="0 0 37 32"><path fill="#89aae3" d="M12.867 31.949c5.4 0 10.023-3.001 11.932-7.256.023-.052-7.663 1.997-7.418 1.273.109-.324 4.821-2.045 8.254-4.052 1.973-1.154 2.882-3.597 2.882-3.597s-3.324 1.614-5.005 2.023c-3.386.825-6.367.736-6.367.65 0-.186 4.95-1.126 11.829-5.319 3.236-1.972 4.115-5.368 4.115-5.368s-3.558 2.119-5.708 2.819c-5.1 1.659-9.754 2.159-9.754 1.935 0-.481 4.096-1.607 8.438-3.711 2.258-1.094 4.213-2.523 6.479-4.113C36.252 4.632 36.863 0 36.863 0s-3.657 2.359-5.442 3.142C24.057 6.374 17.554 8.07 12.866 8.437 5.789 8.991-.001 13.929-.001 20.34S5.76 31.949 12.866 31.949z" style="fill:var(--color16, #89aae3)"/></symbol><symbol id="water" viewBox="0 0 21 32"><path fill="#5090d6" d="M20.681 21.597C20.681 16.081 10.93.93 10.395.103c-.012-.019-.033-.019-.046 0C9.814.93.063 16.08.063 21.597c0 5.672 4.615 10.27 10.309 10.27s10.309-4.598 10.309-10.27zM8.654 28.574c-5.231-1.145-4.336-6.939-4.336-6.939s1.428 3.498 4.895 4.631c3.466 1.133 7.656-.529 7.656-.529s-2.983 3.981-8.215 2.837z" style="fill:var(--color17, #5090d6)"/></symbol><symbol id="ice" viewBox="0 0 32 32"><path fill="#73CEC0" d="m10.036 13.358 5.449 2.651-5.449 2.645-5.449-2.644zM21.976 13.358l-5.449 2.651 5.449 2.645 5.449-2.644zM21.976 6.539l-5.449 2.868v5.616l5.449-2.711zM21.976 25.474l-5.449-2.868V16.99l5.449 2.711zM10.036 6.539l5.449 2.868v5.616l-5.449-2.711zM10.036 25.474l5.449-2.868V16.99l-5.449 2.711z" style="fill:var(--color19, #73CEC0)"/></symbol>
<symbol id="standart" viewBox="0 0 32 32">
<path fill="#383838" style="fill: var(--color1, #383838)" d="M16.634 0c0.134 0.030 0.271 0.019 0.406 0.028q0.806 0.051 1.601 0.179c0.852 0.137 1.595 0.317 2.315 0.548l-0.111-0.031c5.397 1.724 9.491 6.073 10.825 11.506l0.023 0.11c0.156 0.62 0.285 1.368 0.359 2.132l0.005 0.064c0.046 0.491 0.082 0.983 0.068 1.475-0.017 0.58-0.044 1.16-0.109 1.738-0.415 3.603-1.972 6.781-4.293 9.227l0.007-0.007c-1.5 1.59-3.311 2.867-5.339 3.737l-0.104 0.040c-0.867 0.38-1.887 0.704-2.946 0.921l-0.101 0.017c-0.616 0.131-1.354 0.231-2.106 0.279l-0.047 0.002c-0.31 0.021-0.671 0.033-1.036 0.033-0.404 0-0.805-0.015-1.201-0.043l0.053 0.003c-3.573-0.262-6.777-1.66-9.298-3.831l0.021 0.018q-3.194-2.746-4.655-6.697c-0.34-0.888-0.616-1.932-0.78-3.013l-0.011-0.086c-0.153-1.030-0.217-2.065-0.162-3.106 0.386-7.339 5.642-13.346 12.578-14.873l0.107-0.020c0.638-0.143 1.403-0.255 2.184-0.312l0.054-0.003c0.171-0.012 0.342-0.017 0.513-0.024 0.027-0.003 0.051-0.007 0.075-0.012l-0.004 0.001z"></path>
<path fill="#ee3f3e" style="fill: var(--color2, #ee3f3e)" d="M25.866 14.528q-2.612 0-5.223 0c-0.056 0-0.087-0.008-0.112-0.069-0.618-1.501-1.709-2.464-3.3-2.805-1.357-0.291-2.6 0.016-3.701 0.861-0.658 0.505-1.132 1.153-1.43 1.928-0.024 0.064-0.053 0.086-0.125 0.086q-5.452-0.003-10.903-0.002c-0.121 0-0.121 0-0.109-0.12 0.072-0.698 0.182-1.324 0.331-1.933l-0.020 0.096c1.409-5.806 6.010-10.25 11.798-11.408l0.097-0.016c0.464-0.091 0.932-0.155 1.403-0.2 0.446-0.047 0.964-0.074 1.488-0.074 0.060 0 0.12 0 0.181 0.001l-0.009-0c0.585 0.009 1.151 0.047 1.709 0.113l-0.077-0.007c1.18 0.14 2.252 0.395 3.273 0.757l-0.104-0.032c4.298 1.523 7.645 4.797 9.233 8.941l0.035 0.104c0.308 0.79 0.567 1.724 0.733 2.689l0.013 0.088c0.051 0.305 0.084 0.614 0.13 0.92 0.012 0.081-0.024 0.084-0.087 0.084q-2.612-0.002-5.223-0.001z"></path>
<path fill="#fdfcfc" style="fill: var(--color3, #fdfcfc)" d="M6.626 17.983q2.76 0 5.52-0.002c0.059 0 0.088 0.017 0.113 0.069 0.752 1.513 2.288 2.535 4.062 2.535 0.018 0 0.035-0 0.053-0l-0.003 0c0.933-0.019 1.786-0.291 2.55-0.833 0.618-0.439 1.111-1.015 1.441-1.685l0.012-0.026c0.012-0.035 0.045-0.060 0.083-0.060 0.004 0 0.008 0 0.011 0.001l-0-0q5.287 0.002 10.574 0c0.097 0 0.064 0.044 0.057 0.097-0.039 0.326-0.097 0.649-0.165 0.971-0.168 0.795-0.365 1.471-0.606 2.126l0.034-0.106c-0.55 1.516-1.272 2.828-2.161 4.006l0.028-0.038c-0.549 0.731-1.128 1.378-1.759 1.97l-0.008 0.008c-1.148 1.082-2.475 1.992-3.928 2.678l-0.092 0.039c-0.844 0.404-1.832 0.752-2.861 0.994l-0.102 0.020c-0.379 0.087-0.76 0.163-1.144 0.22-0.289 0.043-0.58 0.073-0.871 0.102-0.6 0.061-1.201 0.070-1.803 0.060-0.329-0.005-0.655-0.029-0.984-0.059-0.26-0.024-0.519-0.050-0.776-0.087-2.831-0.416-5.338-1.56-7.397-3.235l0.028 0.022c-0.655-0.53-1.241-1.086-1.78-1.686l-0.012-0.014c-1.362-1.53-2.385-3.26-3.050-5.2-0.198-0.545-0.382-1.213-0.519-1.898l-0.015-0.092c-0.051-0.271-0.092-0.543-0.141-0.814-0.012-0.063 0.005-0.085 0.076-0.085q2.769 0.002 5.537 0.001z"></path>
<path fill="#fff" style="fill: var(--color4, #fff)" d="M16.306 12.406c2.047 0.009 3.68 1.652 3.668 3.686-0.023 2.005-1.653 3.621-3.661 3.621-2.018 0-3.654-1.632-3.661-3.648v-0.001c0.004-2.044 1.65-3.644 3.655-3.658z"></path>
</symbol>
</defs>
</svg>